<?xml version="1.0" standalone="no"?>
<!DOCTYPE svg PUBLIC "-//W3C//DTD SVG 20010904//EN"
 "http://www.w3.org/TR/2001/REC-SVG-20010904/DTD/svg10.dtd">
<svg version="1.0" xmlns="http://www.w3.org/2000/svg"
 width="400.000000pt" height="400.000000pt" viewBox="0 0 400.000000 400.000000"
 preserveAspectRatio="xMidYMid meet">

<g transform="translate(0.000000,400.000000) scale(0.100000,-0.100000)"
fill="#000000" stroke="none">
<path d="M2375 3120 c14 -16 20 -17 26 -8 5 8 2 16 -9 20 -30 12 -35 8 -17
-12z"/>
<path d="M2306 3114 c-18 -17 -22 -84 -6 -84 16 0 26 33 12 38 -7 2 -12 8 -12
13 0 6 4 8 9 4 5 -3 12 4 16 14 4 13 11 18 22 14 11 -4 14 -2 9 5 -10 17 -32
15 -50 -4z"/>
<path d="M2415 3110 c-4 -6 -8 -24 -10 -41 l-4 -31 26 28 c15 17 23 22 20 12
-4 -10 -2 -20 4 -23 5 -4 6 -11 3 -17 -4 -6 1 -6 14 1 18 10 23 8 33 -11 11
-21 11 -22 -4 -9 -10 8 -17 9 -17 3 0 -6 4 -13 9 -16 5 -3 7 -15 4 -26 -3 -11
0 -20 6 -20 5 0 8 6 5 14 -3 8 -1 17 5 21 7 4 8 0 4 -11 -5 -14 -3 -16 12 -11
15 6 16 5 5 -8 -7 -9 -8 -15 -2 -15 21 0 18 26 -8 65 -36 52 -97 107 -105 95z"/>
<path d="M2370 3050 c-13 -8 -12 -10 3 -10 9 0 17 5 17 10 0 12 -1 12 -20 0z"/>
<path d="M2423 3035 c0 -8 4 -12 9 -9 4 3 8 9 8 15 0 5 -4 9 -8 9 -5 0 -9 -7
-9 -15z"/>
<path d="M2304 3000 c3 -14 6 -28 6 -32 0 -5 5 -8 11 -8 12 0 2 39 -13 55 -7
7 -9 2 -4 -15z"/>
<path d="M2460 2999 c0 -11 -4 -17 -10 -14 -6 3 -7 -1 -4 -9 10 -26 24 -18 24
14 0 17 -2 30 -5 30 -3 0 -5 -9 -5 -21z"/>
<path d="M2360 3000 c-9 -6 -10 -10 -3 -10 6 0 15 5 18 10 8 12 4 12 -15 0z"/>
<path d="M3119 2992 c-98 -16 -118 -38 -32 -36 48 2 52 0 36 -12 -10 -8 7 -3
37 11 30 14 62 25 70 25 13 0 13 1 0 11 -12 9 -11 10 6 6 12 -2 27 -1 33 3 20
12 -59 8 -150 -8z m91 -2 c0 -5 -8 -10 -17 -10 -15 0 -16 2 -3 10 19 12 20 12
20 0z m-105 -20 c3 -5 -1 -10 -10 -10 -9 0 -13 5 -10 10 3 6 8 10 10 10 2 0 7
-4 10 -10z m58 3 c-7 -2 -21 -2 -30 0 -10 3 -4 5 12 5 17 0 24 -2 18 -5z"/>
<path d="M2893 2952 c-89 -15 -124 -30 -65 -28 15 0 38 -3 52 -7 25 -8 25 -8
3 5 -22 13 -21 14 20 16 23 1 60 8 82 16 50 18 26 18 -92 -2z"/>
<path d="M2325 2950 c-6 -10 24 -72 38 -78 4 -2 4 -9 0 -15 -3 -7 -2 -8 2 -4
11 9 17 34 16 67 -1 20 1 22 9 10 5 -8 10 -10 10 -5 0 6 -4 16 -9 23 -10 17
-21 -6 -21 -46 -1 -23 -2 -25 -11 -10 -5 10 -9 24 -8 30 4 35 -11 52 -26 28z"/>
<path d="M2553 2938 c1 -15 5 -24 10 -21 4 3 7 -3 5 -13 -2 -11 2 -18 10 -16
19 3 14 -16 -5 -21 -16 -4 -16 -5 -1 -6 9 0 23 5 30 12 7 8 25 12 38 10 20 -2
22 -1 10 7 -11 7 -2 9 30 5 37 -5 41 -4 21 5 -13 6 -45 8 -70 4 -45 -6 -47 -5
-63 28 -16 32 -17 32 -15 6z"/>
<path d="M2958 2925 c-37 -25 -92 -33 -102 -16 -3 5 -15 7 -25 4 -10 -3 -28 0
-39 6 -10 5 -36 7 -57 4 -37 -6 -37 -7 -14 -15 28 -11 194 -19 226 -11 13 3
20 9 17 14 -3 5 2 9 10 9 9 0 16 4 16 9 0 5 8 12 18 14 12 3 13 5 2 6 -9 0
-32 -10 -52 -24z m-181 -11 c-3 -3 -12 -4 -19 -1 -8 3 -5 6 6 6 11 1 17 -2 13
-5z"/>
<path d="M3030 2933 c-24 -14 -24 -14 -2 -10 12 3 22 1 22 -4 0 -5 -11 -9 -24
-9 -13 0 -35 -9 -50 -21 -14 -11 -26 -16 -26 -10 0 7 -10 7 -30 -1 -17 -5 -37
-7 -46 -4 -9 4 -13 2 -8 -5 4 -7 1 -10 -7 -7 -8 3 -13 11 -11 17 3 14 -25 15
-33 1 -3 -5 -11 -10 -16 -10 -6 0 -7 5 -4 10 3 6 -1 10 -10 10 -20 0 -11 -16
17 -31 16 -9 19 -8 13 2 -6 9 -3 11 9 6 10 -4 21 -7 24 -7 4 0 0 -5 -8 -10
-11 -7 -11 -10 -2 -10 7 0 10 -5 7 -10 -4 -7 -14 -6 -28 1 -20 9 -21 9 -4 -4
16 -13 24 -12 67 6 35 15 46 24 37 30 -8 5 -3 7 13 3 16 -3 38 2 55 12 17 10
50 24 75 31 41 12 43 14 25 27 -22 16 -23 16 -55 -3z m45 -3 c3 -5 2 -10 -4
-10 -5 0 -13 5 -16 10 -3 6 -2 10 4 10 5 0 13 -4 16 -10z m-185 -80 c-8 -5
-22 -10 -30 -10 -13 0 -13 1 0 10 8 5 22 10 30 10 13 0 13 -1 0 -10z"/>
<path d="M2402 2908 c-17 -17 -15 -27 7 -25 10 0 18 7 17 14 -3 20 -11 24 -24
11z"/>
<path d="M2510 2890 c0 -5 9 -10 20 -10 11 0 20 5 20 10 0 6 -9 10 -20 10 -11
0 -20 -4 -20 -10z"/>
<path d="M3155 2870 c-46 -10 -95 -27 -95 -35 0 -2 11 0 25 5 14 5 27 6 30 0
7 -11 -59 -25 -74 -16 -5 4 -25 -6 -43 -22 l-32 -29 27 0 c22 0 26 3 22 18 -4
11 -2 19 4 19 6 0 11 -6 11 -12 0 -10 3 -9 9 1 5 8 16 11 30 6 12 -4 21 -2 21
4 0 6 8 11 17 11 9 0 13 -3 10 -7 -4 -3 -2 -12 4 -20 8 -9 8 -13 1 -13 -15 0
-4 -27 13 -33 7 -3 12 1 11 11 0 9 5 16 12 14 7 -1 16 8 21 21 5 12 16 29 25
36 24 20 19 29 -11 23 -16 -2 -25 -2 -22 2 4 4 21 8 38 8 18 1 34 5 37 10 6
10 -36 9 -91 -2z m0 -20 c-4 -6 6 -11 22 -11 17 -1 21 -3 11 -6 -11 -3 -19
-15 -19 -31 -2 -24 -2 -24 -6 -4 -2 12 -9 22 -15 22 -6 0 -8 -9 -5 -20 3 -11
0 -23 -5 -27 -6 -3 -8 -1 -4 5 3 6 2 13 -3 16 -11 7 -2 48 13 58 15 10 18 10
11 -2z"/>
<path d="M2391 2847 c-1 -10 -5 -15 -11 -12 -5 3 -3 -10 5 -29 18 -42 19 -56
4 -56 -5 0 -7 6 -3 13 18 30 -12 -8 -76 -98 -39 -54 -70 -103 -70 -109 0 -6 4
-5 9 2 4 8 12 14 17 15 5 1 9 7 10 12 0 6 2 13 2 18 1 4 15 1 31 -8 19 -9 28
-21 26 -32 -2 -10 -4 -20 -4 -23 -1 -3 -5 1 -10 9 -14 22 -43 22 -48 0 -6 -20
-28 -26 -38 -9 -4 6 -14 1 -25 -12 -12 -15 -15 -27 -9 -34 6 -7 2 -20 -11 -35
-10 -13 -19 -20 -20 -15 0 5 7 18 17 28 9 10 12 18 7 18 -9 -1 -171 -220 -181
-246 -9 -24 12 -15 43 18 16 18 19 24 7 14 -26 -21 -30 -11 -8 18 11 15 17 16
28 7 11 -9 17 -8 27 4 7 8 9 15 4 15 -5 0 -2 5 6 10 12 8 12 10 1 10 -10 0
-11 3 -2 14 9 11 9 15 -1 20 -7 3 -4 5 7 3 11 -1 25 2 32 6 6 4 15 3 18 -3 10
-17 35 8 28 27 -5 12 -2 15 9 10 19 -7 65 37 49 48 -6 3 -8 11 -5 17 4 6 -1 6
-14 -1 -29 -16 -34 -14 -22 8 13 26 13 34 -2 25 -7 -5 -8 -3 -3 6 6 10 11 9
21 -4 14 -20 30 -14 53 17 14 19 14 19 28 1 11 -15 15 -16 22 -5 5 7 13 11 19
7 11 -7 25 23 20 44 -2 7 3 15 10 17 6 3 12 -3 12 -13 0 -19 15 -10 15 9 1 7
7 11 14 9 8 -2 24 6 36 18 12 11 25 17 28 13 4 -3 7 -1 7 6 0 7 -9 11 -22 9
-13 -2 -22 -9 -20 -17 2 -8 -3 -11 -12 -8 -9 4 -18 2 -21 -3 -4 -6 -11 -10
-16 -10 -6 0 -8 4 -5 9 9 14 -5 42 -16 35 -6 -4 -5 -10 3 -15 10 -6 11 -9 2
-9 -7 0 -13 -5 -13 -11 0 -16 -29 -41 -40 -34 -5 3 -10 13 -10 22 0 11 -6 14
-21 10 -13 -3 -19 -1 -16 6 2 7 8 12 13 12 5 1 21 4 36 8 20 5 26 12 21 24 -4
11 -3 14 5 9 7 -4 12 -3 12 3 0 5 -4 12 -9 15 -12 8 -34 -21 -26 -33 3 -7 0
-8 -9 -5 -17 7 -12 21 25 64 13 15 19 18 16 8 -7 -20 18 -45 28 -28 3 5 -1 10
-10 10 -9 0 -13 5 -10 10 4 6 9 8 13 6 11 -7 14 88 3 115 -7 18 -10 20 -10 6z
m-141 -387 c0 -5 -7 -10 -15 -10 -8 0 -13 -6 -11 -12 1 -7 1 -10 -1 -6 -2 4
-11 4 -19 1 -8 -3 -14 -1 -14 5 0 8 21 20 58 31 1 1 2 -3 2 -9z m-60 -49 c7
-13 7 -22 0 -26 -9 -5 -12 1 -9 21 0 4 -5 11 -13 15 -9 6 -9 9 -1 9 7 0 17 -9
23 -19z m-37 -22 c-8 -8 -13 -7 -18 2 -6 8 -4 10 5 4 10 -6 12 -4 6 11 -6 15
-5 17 5 7 9 -10 10 -16 2 -24z m-55 -74 c-3 -3 -9 2 -12 12 -6 14 -5 15 5 6 7
-7 10 -15 7 -18z"/>
<path d="M2738 2853 c-10 -2 -18 -11 -18 -19 0 -19 19 -18 26 1 4 8 11 12 17
8 6 -3 7 -1 3 5 -4 7 -8 11 -9 11 -1 -1 -10 -3 -19 -6z"/>
<path d="M2620 2835 c-14 -17 -7 -45 12 -44 10 0 10 2 1 6 -21 8 -15 33 10 43
15 6 17 9 6 9 -9 1 -22 -6 -29 -14z"/>
<path d="M2678 2843 c6 -2 18 -2 25 0 6 3 1 5 -13 5 -14 0 -19 -2 -12 -5z"/>
<path d="M2651 2792 c-11 -20 -9 -47 3 -59 4 -4 6 -1 4 7 -2 10 4 14 16 13 10
0 46 12 80 27 33 16 53 29 44 29 -9 1 -20 -4 -23 -9 -4 -6 -15 -8 -25 -5 -10
3 -20 0 -23 -9 -4 -9 -14 -12 -27 -9 -17 5 -19 8 -8 15 9 6 5 7 -11 3 -16 -5
-21 -4 -17 4 4 6 5 11 2 11 -3 0 -10 -8 -15 -18z m39 -22 c18 -12 2 -12 -25 0
-13 6 -15 9 -5 9 8 0 22 -4 30 -9z"/>
<path d="M3036 2769 c-7 -11 -20 -17 -27 -14 -9 3 -18 -5 -26 -24 -9 -24 -8
-29 3 -24 9 3 14 -2 14 -17 0 -11 -4 -18 -10 -15 -5 3 -10 1 -10 -5 0 -7 6
-10 13 -7 7 2 11 19 10 42 -2 32 -1 35 12 25 12 -10 15 -9 15 4 0 9 5 16 11
16 5 0 7 5 3 12 -4 7 -3 8 5 4 15 -10 44 -66 37 -74 -4 -3 -13 3 -21 14 -16
21 -16 22 -20 -26 -3 -32 -2 -33 9 -11 12 21 13 19 13 -25 1 -38 -1 -44 -8
-26 -4 12 -11 22 -13 22 -3 0 -1 -12 4 -26 13 -32 12 -37 0 -29 -12 7 -13 -15
-2 -32 5 -9 12 0 21 25 7 20 26 63 42 95 28 54 28 72 1 45 -6 -6 -15 -8 -19
-4 -4 4 -3 10 3 14 20 14 9 45 -19 53 -21 6 -30 3 -41 -12z m75 -76 c-15 -29
-40 -59 -41 -50 0 10 39 67 46 67 3 0 0 -8 -5 -17z"/>
<path d="M2560 2748 c0 -19 2 -20 10 -8 13 19 13 30 0 30 -5 0 -10 -10 -10
-22z"/>
<path d="M2928 2728 c-39 -73 -40 -78 -18 -113 11 -18 27 -36 35 -39 20 -7 19
-1 -3 21 -11 10 -22 26 -25 35 -5 15 -3 16 21 7 l26 -10 -27 25 c-26 24 -37
43 -18 31 5 -3 11 0 14 7 2 7 2 2 0 -12 -3 -21 -2 -22 7 -8 6 9 8 29 6 42 -3
14 0 29 6 32 6 4 8 2 4 -4 -3 -6 -2 -13 4 -17 5 -3 10 3 10 14 0 37 -19 32
-42 -11z"/>
<path d="M2489 2711 c-2 -6 -16 -12 -31 -13 -20 -2 -27 -8 -30 -29 -3 -19 0
-25 9 -22 7 3 13 14 13 24 0 12 7 19 19 19 20 0 37 17 28 26 -3 3 -7 1 -8 -5z"/>
<path d="M2563 2714 c-8 -4 -8 -12 3 -32 8 -15 14 -33 14 -40 0 -7 5 -10 10
-7 6 3 10 24 10 46 0 38 -7 45 -37 33z"/>
<path d="M2643 2680 c1 -35 3 -38 12 -19 11 19 12 17 25 -20 7 -23 10 -44 7
-48 -4 -3 -7 3 -7 15 0 11 -4 23 -9 27 -13 7 -26 -15 -26 -45 0 -14 -5 -24
-12 -23 -8 2 -10 -10 -8 -37 2 -24 -1 -40 -7 -40 -6 0 -8 12 -4 30 3 17 1 30
-4 30 -6 0 -11 -3 -11 -7 -6 -35 -5 -60 2 -73 5 -10 8 -11 9 -2 0 6 5 12 10
12 7 0 7 -6 0 -19 -11 -21 3 -40 15 -21 4 6 10 8 14 5 17 -10 55 46 54 78 -1
18 1 24 4 14 6 -22 29 -16 25 6 -5 27 -75 177 -83 177 -5 0 -7 -18 -6 -40z
m31 -113 c-3 -7 1 -4 9 6 17 21 23 21 31 2 3 -8 0 -14 -6 -12 -13 2 -29 -49
-21 -69 3 -8 -1 -14 -11 -14 -9 0 -16 -6 -16 -13 0 -8 -6 -14 -14 -14 -19 0
-13 91 7 112 8 8 13 25 11 37 -5 23 -5 23 6 0 5 -13 7 -29 4 -35z"/>
<path d="M2500 2680 c0 -5 7 -15 15 -23 8 -8 11 -17 8 -21 -4 -3 -1 -6 5 -6 6
0 9 -7 6 -15 -4 -8 -1 -15 5 -15 6 0 11 6 11 13 0 8 4 7 10 -3 8 -12 10 -10
10 9 0 16 -4 21 -15 17 -10 -3 -17 3 -21 19 -6 23 -34 44 -34 25z"/>
<path d="M2514 2600 c8 -14 26 -42 38 -62 12 -21 26 -38 32 -38 6 0 6 4 -1 11
-9 9 -8 15 3 26 8 8 11 19 8 25 -4 7 -10 4 -16 -6 -11 -20 -28 -12 -28 15 0
10 -5 19 -11 19 -7 0 -18 8 -26 18 -11 12 -10 9 1 -8z"/>
<path d="M2602 2595 c0 -16 2 -22 5 -12 2 9 2 23 0 30 -3 6 -5 -1 -5 -18z"/>
<path d="M2880 2538 c0 -61 3 -79 11 -68 7 11 8 3 3 -30 -6 -40 -5 -43 9 -31
14 11 17 9 23 -15 4 -16 2 -35 -6 -48 -9 -15 -10 -21 -1 -24 6 -2 9 -7 7 -11
-3 -4 4 -7 14 -8 21 -2 33 21 25 48 -4 11 -2 19 4 19 6 0 10 12 10 28 -1 20
-2 22 -6 7 -3 -11 -9 -25 -14 -31 -5 -6 -7 -18 -3 -27 3 -8 0 -18 -7 -23 -9
-5 -11 2 -6 31 4 22 1 47 -5 59 -7 12 -11 32 -10 46 2 20 1 22 -8 10 -8 -11
-10 -1 -8 43 2 41 -1 57 -10 57 -8 0 -10 8 -6 25 4 15 2 25 -5 25 -7 0 -11
-29 -11 -82z"/>
<path d="M2280 2591 c0 -5 5 -13 10 -16 6 -3 10 -2 10 4 0 5 -4 13 -10 16 -5
3 -10 2 -10 -4z"/>
<path d="M3035 2504 c-3 -16 -10 -44 -15 -62 -5 -19 -6 -40 -3 -48 3 -8 0 -14
-6 -14 -14 0 -14 40 -1 74 5 14 6 26 1 26 -12 0 -21 -36 -21 -85 0 -22 -7 -60
-16 -84 -8 -24 -13 -50 -10 -58 3 -7 2 -13 -3 -13 -5 0 -12 12 -15 26 -4 15
-9 24 -12 22 -8 -9 18 -68 28 -62 6 4 9 1 6 -7 -4 -13 13 -51 65 -142 10 -18
16 -23 13 -12 -16 71 -19 92 -17 108 1 9 -2 17 -7 17 -5 0 -8 28 -7 63 1 34 0
44 -2 22 -3 -28 -7 -35 -14 -25 -7 13 -9 12 -9 -2 0 -9 5 -20 11 -24 8 -4 7
-9 -2 -15 -12 -7 -12 -10 -1 -18 15 -9 25 -64 10 -55 -5 3 -7 11 -5 17 2 7 -3
18 -10 26 -8 8 -12 22 -10 32 3 10 1 19 -3 21 -9 3 18 90 30 98 8 6 41 192 35
198 -2 3 -7 -9 -10 -24z"/>
<path d="M2286 2498 c-8 -12 -13 -25 -10 -30 8 -12 24 0 24 18 0 8 7 14 16 14
8 0 12 5 9 10 -10 16 -23 12 -39 -12z"/>
<path d="M2734 2509 c-8 -14 16 -60 28 -53 4 3 8 10 8 15 0 6 -5 7 -12 3 -8
-5 -9 -2 -5 10 5 11 3 15 -5 10 -8 -5 -9 -2 -5 9 7 19 2 23 -9 6z"/>
<path d="M2942 2460 c0 -14 3 -34 8 -45 l9 -20 -1 20 c0 11 -4 31 -8 45 l-8
25 0 -25z"/>
<path d="M2970 2465 c0 -8 2 -15 4 -15 2 0 6 7 10 15 3 8 1 15 -4 15 -6 0 -10
-7 -10 -15z"/>
<path d="M2717 2440 c-21 -25 -22 -31 -2 -24 8 4 15 1 15 -5 0 -6 -6 -11 -13
-11 -8 0 -18 -10 -24 -22 -6 -15 -12 -18 -17 -10 -4 7 -2 12 3 12 6 0 11 5 11
10 0 6 -7 10 -15 10 -7 0 -19 8 -24 18 -10 16 -10 16 -11 0 0 -9 8 -22 18 -27
9 -6 13 -11 9 -11 -11 0 94 -150 105 -150 5 0 7 -4 3 -9 -3 -5 -1 -12 4 -16
11 -6 36 33 27 43 -3 3 -6 0 -6 -6 0 -7 -5 -12 -11 -12 -5 0 -8 4 -4 9 3 5 -5
26 -17 47 -12 20 -24 32 -26 26 -2 -7 -8 -12 -13 -12 -6 0 -7 5 -3 12 5 7 3 8
-6 3 -9 -5 -11 -1 -6 16 3 13 3 18 0 10 -5 -11 -8 -11 -14 -1 -12 19 10 48 31
43 11 -3 16 -9 13 -14 -3 -5 0 -9 5 -9 6 0 11 12 11 28 0 21 -2 24 -10 12 -8
-11 -9 -7 -4 15 4 24 3 27 -6 15 -10 -12 -11 -11 -7 8 6 27 6 27 -16 2z m48
-170 c9 -16 12 -30 7 -30 -8 0 -32 42 -32 55 0 13 11 2 25 -25z"/>
<path d="M2450 2440 c12 -9 8 -10 -18 -5 -24 5 -42 1 -70 -16 -20 -13 -40 -28
-44 -33 -5 -7 -8 -7 -8 -1 0 6 -32 -23 -70 -64 -38 -41 -68 -76 -66 -78 9 -9
39 12 47 34 8 20 12 22 30 13 15 -9 28 -9 47 -1 15 6 56 15 92 20 l65 9 -73
-1 c-46 -1 -77 -6 -84 -14 -6 -7 -18 -13 -27 -13 -14 1 -14 2 2 11 9 5 17 15
17 21 0 6 -8 4 -18 -5 -26 -24 -39 -21 -17 3 13 14 25 18 43 13 16 -4 23 -2
19 4 -4 6 0 16 8 23 8 7 13 16 10 20 -9 15 40 39 58 28 10 -5 15 -13 12 -19
-4 -5 3 -9 14 -9 26 0 18 23 -12 38 -18 9 -12 10 28 7 64 -5 66 -6 30 -15 -24
-6 -20 -7 23 -7 33 0 51 4 49 11 -2 6 -14 10 -26 9 -13 -2 -20 1 -16 7 3 6 0
10 -9 10 -8 0 -23 3 -33 6 -15 5 -16 4 -3 -6z m-144 -85 c-3 -9 -11 -13 -16
-10 -8 5 -7 11 1 21 14 18 24 11 15 -11z"/>
<path d="M2767 2444 c-12 -12 -8 -26 5 -18 8 5 9 2 5 -10 -4 -10 -3 -15 3 -11
6 3 10 1 10 -6 0 -7 3 -10 6 -7 3 4 -1 18 -8 32 -8 15 -17 24 -21 20z"/>
<path d="M2903 2385 c-3 -9 -3 -18 -1 -21 3 -3 8 4 11 16 6 23 -1 27 -10 5z"/>
<path d="M2360 2370 c0 -5 5 -10 10 -10 6 0 10 5 10 10 0 6 -4 10 -10 10 -5 0
-10 -4 -10 -10z"/>
<path d="M2503 2373 c43 -5 49 -20 10 -26 -16 -3 -9 -4 14 -3 54 2 65 -19 20
-38 l-32 -14 40 4 c30 3 34 2 15 -4 -25 -8 -25 -8 -3 -14 16 -4 24 -1 28 13 9
27 22 23 33 -10 9 -25 8 -29 -4 -24 -7 3 -11 9 -8 14 3 5 0 9 -5 9 -20 0 -11
-15 27 -45 20 -16 31 -21 23 -12 -7 9 -11 17 -7 17 9 0 -53 117 -67 127 -7 5
-37 9 -67 9 -36 1 -42 -1 -17 -3z m97 -50 c0 -17 -17 -17 -17 0 0 6 -4 21 -8
32 -7 20 -6 20 9 1 9 -11 16 -26 16 -33z"/>
<path d="M2804 2355 c2 -16 -2 -33 -8 -37 -6 -4 -7 -8 -1 -8 6 0 16 4 23 9 12
7 11 13 -1 37 l-16 29 3 -30z"/>
<path d="M2149 2353 c-13 -16 -12 -17 4 -4 9 7 17 15 17 17 0 8 -8 3 -21 -13z"/>
<path d="M2448 2353 c6 -2 18 -2 25 0 6 3 1 5 -13 5 -14 0 -19 -2 -12 -5z"/>
<path d="M2760 2326 c0 -7 6 -19 14 -25 11 -9 12 -6 8 14 -5 26 -22 35 -22 11z"/>
<path d="M2467 2308 c6 -11 35 -10 53 2 10 6 4 8 -22 7 -20 -1 -34 -5 -31 -9z"/>
<path d="M2818 2303 c-5 -27 -2 -100 4 -97 5 3 8 -2 8 -11 0 -12 -6 -15 -20
-10 -18 6 -16 0 12 -40 18 -25 34 -41 36 -36 2 6 10 11 18 11 8 0 14 6 14 13
0 8 3 7 10 -3 7 -11 3 -18 -16 -28 -20 -11 -23 -16 -14 -28 15 -18 31 -9 24
14 -5 13 -4 14 4 3 19 -26 23 8 6 58 -23 71 -37 89 -58 72 -14 -12 -16 -11
-12 10 2 13 9 23 16 21 8 -2 10 3 6 13 -3 9 -6 19 -6 23 0 3 -7 -3 -15 -14
-15 -18 -15 -18 -9 9 3 15 3 27 0 27 -3 0 -7 -3 -8 -7z m70 -151 c-4 -21 -27
-23 -50 -4 -16 14 -16 16 4 45 l21 29 14 -26 c8 -15 13 -35 11 -44z"/>
<path d="M2840 2168 c0 -8 3 -17 6 -21 9 -8 34 3 34 16 0 6 -3 7 -7 4 -3 -4
-12 -2 -20 4 -10 9 -13 8 -13 -3z"/>
<path d="M966 2168 c-52 -14 -112 -75 -126 -130 -7 -25 -11 -92 -8 -163 3
-136 14 -165 81 -219 l39 -31 256 -3 c171 -2 263 1 277 8 11 6 40 42 65 80
l45 70 162 0 163 0 45 -69 c26 -37 57 -73 71 -80 27 -12 151 -15 179 -5 9 4
39 40 66 80 l50 74 162 0 162 0 42 -65 c55 -84 76 -97 147 -93 l56 3 -185 278
-185 277 -39 0 -38 0 -163 -245 c-90 -135 -164 -245 -165 -245 -1 0 -75 110
-165 245 l-163 245 -38 0 -39 0 -152 -227 -153 -228 -211 0 c-271 0 -254 -12
-254 172 0 184 -14 173 230 173 151 0 197 3 220 15 33 17 50 43 50 74 0 21 -4
21 -222 20 -123 -1 -240 -6 -262 -11z m844 -223 c27 -41 50 -77 50 -80 0 -3
-47 -5 -105 -5 l-105 0 52 80 c29 44 54 80 55 80 1 0 25 -34 53 -75z m687 -83
c-55 -1 -102 -1 -104 2 -3 2 19 39 47 81 l52 77 53 -79 52 -78 -100 -3z"/>
<path d="M2906 2069 c-11 -17 -12 -25 -3 -40 7 -11 15 -19 19 -19 13 0 9 12
-9 26 -17 12 -16 13 3 11 17 -1 21 -7 19 -32 -1 -21 13 -51 48 -102 49 -72 70
-95 45 -50 -6 12 -13 27 -14 32 -5 25 -32 64 -39 57 -5 -4 -5 1 -2 10 5 13 2
15 -11 11 -14 -6 -15 -4 -4 9 10 13 9 24 -7 62 -11 25 -22 46 -25 46 -3 0 -12
-10 -20 -21z m45 -82 c-10 -9 -11 -8 -5 6 3 10 9 15 12 12 3 -3 0 -11 -7 -18z"/>
<path d="M2579 1518 c-1 -2 -3 -13 -4 -25 -2 -24 10 -29 35 -13 13 8 12 10 -2
10 -21 0 -24 16 -5 23 7 3 5 6 -5 6 -10 1 -19 0 -19 -1z"/>
<path d="M1070 1474 c0 -17 22 -14 28 4 2 7 -3 12 -12 12 -9 0 -16 -7 -16 -16z"/>
<path d="M1440 1425 c0 -63 -1 -65 -25 -65 -21 0 -25 5 -25 28 0 38 -17 52
-61 52 -39 0 -49 -11 -49 -56 0 -20 -5 -24 -30 -24 -25 0 -30 4 -30 25 0 32
-35 67 -62 63 -32 -5 -35 -28 -4 -28 19 0 29 -7 36 -26 6 -14 10 -27 10 -29 0
-2 -17 -5 -37 -7 -20 -2 -38 -9 -41 -15 -3 -10 36 -13 172 -13 l176 0 0 80 c0
64 -3 80 -15 80 -12 0 -15 -14 -15 -65z m-82 -37 c3 -24 0 -28 -22 -28 -22 0
-26 4 -26 31 0 26 3 30 23 27 16 -2 23 -11 25 -30z"/>
<path d="M1510 1411 c0 -66 3 -81 15 -81 13 0 15 13 13 77 -2 50 -7 78 -15 81
-10 3 -13 -17 -13 -77z"/>
<path d="M1780 1410 c0 -47 4 -80 10 -80 6 0 10 33 10 80 0 47 -4 80 -10 80
-6 0 -10 -33 -10 -80z"/>
<path d="M2040 1425 c0 -63 -1 -65 -25 -65 -22 0 -25 4 -25 40 0 29 -4 40 -15
40 -11 0 -15 -11 -15 -40 0 -39 -1 -40 -35 -40 -34 0 -35 1 -35 40 0 29 -4 40
-15 40 -12 0 -15 -14 -15 -62 0 -43 -5 -67 -17 -80 -15 -17 -15 -18 6 -18 13
0 26 9 33 25 l11 25 184 0 183 0 0 81 c0 60 -3 80 -12 77 -8 -3 -14 -28 -16
-66 -3 -57 -5 -62 -25 -62 -18 0 -23 6 -25 31 -1 18 -5 36 -8 40 -9 15 -67 10
-86 -8 -17 -15 -18 -14 -18 25 0 31 -4 42 -15 42 -12 0 -15 -14 -15 -65z m112
-30 c15 -32 9 -37 -42 -33 l-42 3 22 28 c27 34 47 34 62 2z"/>
<path d="M2300 1411 c0 -66 3 -81 15 -81 13 0 15 13 13 77 -2 50 -7 78 -15 81
-10 3 -13 -17 -13 -77z"/>
<path d="M2440 1481 c0 -6 5 -13 10 -16 6 -3 10 1 10 9 0 9 -4 16 -10 16 -5 0
-10 -4 -10 -9z"/>
<path d="M2480 1474 c0 -8 5 -12 10 -9 6 3 10 10 10 16 0 5 -4 9 -10 9 -5 0
-10 -7 -10 -16z"/>
<path d="M1670 1455 c0 -9 5 -15 11 -13 6 2 11 8 11 13 0 5 -5 11 -11 13 -6 2
-11 -4 -11 -13z"/>
<path d="M2783 1453 c-27 -10 -11 -23 30 -23 48 0 67 -13 67 -47 0 -30 -14
-29 -34 3 -21 31 -57 29 -71 -3 -7 -16 -18 -23 -37 -23 -26 0 -28 3 -28 40 0
29 -4 40 -15 40 -11 0 -15 -11 -15 -40 0 -39 -1 -40 -35 -40 -34 0 -35 1 -35
40 0 29 -4 40 -15 40 -11 0 -15 -11 -15 -40 0 -38 -2 -40 -30 -40 -28 0 -30 2
-30 41 l0 40 -52 -3 -53 -3 -3 -38 c-6 -67 -7 -67 261 -67 l240 0 -6 47 c-3
32 -12 53 -27 65 -21 17 -70 23 -97 11z m-293 -63 c0 -25 -4 -30 -25 -30 -20
0 -25 5 -25 23 0 28 7 37 32 37 13 0 18 -8 18 -30z m335 -20 c3 -5 -3 -10 -15
-10 -12 0 -18 5 -15 10 3 6 10 10 15 10 5 0 12 -4 15 -10z"/>
<path d="M1070 1400 l0 -40 -54 0 c-57 0 -78 -12 -50 -28 27 -15 6 -32 -40
-32 -47 0 -66 13 -66 47 0 29 -16 30 -25 3 -4 -13 0 -31 10 -46 15 -23 21 -25
83 -22 58 3 68 6 77 26 8 18 18 22 52 22 l43 0 0 55 c0 42 -3 55 -15 55 -11 0
-15 -11 -15 -40z"/>
<path d="M1720 1389 c0 -59 -13 -89 -40 -89 -25 0 -34 17 -32 57 2 24 -2 33
-13 33 -11 0 -15 -11 -15 -43 0 -52 13 -67 60 -67 20 0 41 5 48 12 15 15 16
148 2 148 -5 0 -10 -23 -10 -51z"/>
<path d="M1950 1294 c0 -8 5 -12 10 -9 6 3 10 10 10 16 0 5 -4 9 -10 9 -5 0
-10 -7 -10 -16z"/>
<path d="M1980 1300 c0 -5 5 -10 10 -10 6 0 10 5 10 10 0 6 -4 10 -10 10 -5 0
-10 -4 -10 -10z"/>
<path d="M2660 1301 c0 -17 18 -21 24 -6 3 9 0 15 -9 15 -8 0 -15 -4 -15 -9z"/>
<path d="M2700 1294 c0 -8 5 -12 10 -9 6 3 10 10 10 16 0 5 -4 9 -10 9 -5 0
-10 -7 -10 -16z"/>
<path d="M900 1245 c0 -8 5 -15 10 -15 6 0 10 7 10 15 0 8 -4 15 -10 15 -5 0
-10 -7 -10 -15z"/>
<path d="M930 1245 c0 -8 5 -15 10 -15 6 0 10 7 10 15 0 8 -4 15 -10 15 -5 0
-10 -7 -10 -15z"/>
<path d="M849 1174 c-18 -21 -17 -93 2 -105 18 -11 56 -12 64 0 3 5 -7 11 -22
13 -25 3 -28 7 -28 43 0 36 3 40 28 43 15 2 25 8 22 13 -10 15 -51 10 -66 -7z"/>
<path d="M939 1178 c-1 -13 -1 -82 0 -105 1 -7 6 -13 11 -13 6 0 10 26 10 59
0 33 -4 63 -10 66 -5 3 -11 0 -11 -7z"/>
<path d="M978 1184 c-3 -3 1 -32 10 -65 13 -51 18 -60 35 -57 17 2 24 16 35
61 8 32 11 61 8 65 -10 10 -23 -16 -30 -60 -8 -47 -22 -42 -31 12 -7 39 -17
55 -27 44z"/>
<path d="M1090 1126 c0 -37 4 -66 10 -66 6 0 10 26 10 59 0 33 -4 63 -10 66
-6 4 -10 -18 -10 -59z"/>
<path d="M1140 1126 l0 -66 29 0 c17 0 33 5 36 10 4 6 -5 10 -19 10 -24 0 -26
3 -26 49 0 28 -4 53 -10 56 -6 4 -10 -18 -10 -59z"/>
<path d="M1271 1153 c-21 -82 -23 -93 -13 -93 5 0 12 7 16 15 7 20 36 19 52
-2 7 -10 15 -16 18 -13 6 6 -17 100 -28 119 -14 23 -36 10 -45 -26z m39 -18
c0 -14 -6 -25 -14 -25 -9 0 -12 8 -8 25 2 14 8 25 13 25 5 0 9 -11 9 -25z"/>
<path d="M1354 1164 c23 -95 27 -104 46 -104 18 0 34 34 42 95 6 41 -17 24
-26 -19 -5 -25 -13 -46 -17 -46 -4 0 -11 21 -15 47 -5 25 -15 48 -23 51 -11 4
-12 -2 -7 -24z"/>
<path d="M1467 1183 c-10 -17 -1 -117 11 -121 9 -3 12 13 12 57 0 54 -11 84
-23 64z"/>
<path d="M1531 1171 c-6 -11 -14 -42 -17 -68 -5 -43 -4 -46 9 -30 18 22 43 22
56 0 18 -33 23 -4 9 54 -15 62 -38 80 -57 44z m38 -53 c1 -5 -6 -8 -14 -8 -15
0 -21 31 -8 44 7 6 20 -17 22 -36z"/>
<path d="M1605 1180 c-3 -5 1 -10 9 -10 11 0 16 -13 18 -50 4 -68 22 -68 28 0
3 30 8 54 13 53 18 -7 20 -1 2 7 -28 12 -63 12 -70 0z"/>
<path d="M1704 1177 c-9 -25 0 -110 14 -115 9 -3 12 13 12 57 0 57 -14 89 -26
58z"/>
<path d="M1766 1177 c-13 -9 -17 -24 -14 -56 3 -50 22 -67 61 -57 20 5 28 14
33 41 11 63 -35 105 -80 72z m49 -52 c0 -33 -3 -40 -20 -40 -15 0 -21 8 -23
28 -5 39 5 59 25 55 14 -2 18 -13 18 -43z"/>
<path d="M1870 1124 c0 -36 4 -64 10 -64 6 0 10 21 11 48 l0 47 18 -45 c10
-25 26 -46 35 -48 13 -3 16 7 16 63 0 42 -4 64 -10 60 -5 -3 -10 -25 -11 -48
l0 -42 -18 44 c-10 24 -25 45 -34 47 -14 2 -17 -8 -17 -62z"/>
<path d="M2041 1153 c-21 -82 -23 -93 -13 -93 5 0 12 7 16 15 7 20 36 19 52
-2 7 -10 15 -16 18 -13 6 6 -17 100 -28 119 -14 23 -36 10 -45 -26z m39 -24
c0 -10 -6 -19 -14 -19 -9 0 -12 8 -8 25 5 28 22 24 22 -6z"/>
<path d="M2136 1179 c-12 -27 -3 -101 15 -112 9 -5 28 -7 42 -3 26 6 27 10 27
68 0 71 -17 69 -22 -2 -2 -37 -6 -45 -23 -45 -17 0 -21 8 -25 55 -4 36 -9 49
-14 39z"/>
<path d="M2240 1174 c0 -8 6 -13 13 -11 8 1 13 -15 15 -50 4 -68 22 -69 22 -3
0 43 3 52 23 60 27 11 24 12 -30 15 -31 2 -43 -1 -43 -11z"/>
<path d="M2348 1184 c-12 -11 -10 -124 2 -124 6 0 10 11 10 25 0 20 5 25 25
25 20 0 25 -5 25 -25 0 -14 5 -25 10 -25 6 0 10 29 10 66 0 41 -4 63 -10 59
-5 -3 -10 -17 -10 -31 0 -38 -43 -30 -50 9 -3 16 -8 25 -12 21z"/>
<path d="M2478 1180 c-44 -26 -24 -120 25 -120 34 0 47 19 47 67 0 32 -5 45
-19 53 -24 12 -31 12 -53 0z m47 -55 c0 -33 -3 -40 -20 -40 -15 0 -21 8 -23
28 -5 39 5 59 25 55 14 -2 18 -13 18 -43z"/>
<path d="M2579 1177 c-4 -79 -2 -111 9 -115 7 -2 12 5 12 17 0 27 26 27 33 1
3 -11 9 -20 14 -20 13 0 14 108 1 116 -21 13 -68 14 -69 1z m58 -23 c3 -9 0
-20 -8 -25 -23 -14 -29 -11 -29 16 0 28 27 35 37 9z"/>
<path d="M2725 1180 c-3 -6 1 -10 9 -10 11 0 16 -10 17 -27 2 -65 5 -76 17
-80 8 -3 12 10 12 49 0 47 3 54 20 55 23 2 50 -42 50 -82 0 -14 5 -25 10 -25
6 0 10 12 10 28 1 15 7 38 15 52 22 39 18 60 -6 31 -18 -22 -21 -23 -32 -7
-14 20 -112 32 -122 16z"/>
<path d="M2682 1123 c4 -81 28 -85 28 -4 0 48 -3 61 -15 61 -13 0 -15 -11 -13
-57z"/>
</g>
</svg>
